REM DIRINDEX 1\2,1\3,1\4,1\5
REM DIRNAME folder01,folder02,folder03,folder04,folder05
TITLE ""
FILE "1Q_t_1839-1848.mp3" MP3
  TRACK 01 AUDIO
    TITLE "3:cjc004_6424"
    INDEX 01 00:00:00
  TRACK 02 AUDIO
    TITLE "0:"
    INDEX 01 00:00:68
  TRACK 03 AUDIO
    TITLE "4:cjc004_6425"
    INDEX 01 00:01:17
  TRACK 04 AUDIO
    TITLE "0:"
    INDEX 01 00:02:04
  TRACK 05 AUDIO
    TITLE "5:cjc004_6426"
    INDEX 01 00:02:28
  TRACK 06 AUDIO
    TITLE "0:"
    INDEX 01 00:08:44
  TRACK 07 AUDIO
    TITLE "3:cjc004_6427"
    INDEX 01 00:09:28
  TRACK 08 AUDIO
    TITLE "0:"
    INDEX 01 00:10:29
  TRACK 09 AUDIO
    TITLE "4:cjc004_6428"
    INDEX 01 00:10:57
  TRACK 10 AUDIO
    TITLE "0:"
    INDEX 01 00:11:68
  TRACK 11 AUDIO
    TITLE "5:cjc004_6429"
    INDEX 01 00:12:16
  TRACK 12 AUDIO
    TITLE "0:"
    INDEX 01 00:16:20
  TRACK 13 AUDIO
    TITLE "3:cjc004_6430"
    INDEX 01 00:16:71
  TRACK 14 AUDIO
    TITLE "0:"
    INDEX 01 00:17:74
  TRACK 15 AUDIO
    TITLE "4:cjc004_6431"
    INDEX 01 00:18:29
  TRACK 16 AUDIO
    TITLE "0:"
    INDEX 01 00:19:28
  TRACK 17 AUDIO
    TITLE "5:cjc004_6432"
    INDEX 01 00:19:52
  TRACK 18 AUDIO
    TITLE "0:"
    INDEX 01 00:25:37
  TRACK 19 AUDIO
    TITLE "3:cjc004_6433"
    INDEX 01 00:26:17
  TRACK 20 AUDIO
    TITLE "0:"
    INDEX 01 00:27:20
  TRACK 21 AUDIO
    TITLE "4:cjc004_6434"
    INDEX 01 00:27:43
  TRACK 22 AUDIO
    TITLE "0:"
    INDEX 01 00:28:70
  TRACK 23 AUDIO
    TITLE "5:cjc004_6435"
    INDEX 01 00:29:19
  TRACK 24 AUDIO
    TITLE "0:"
    INDEX 01 00:33:38
  TRACK 25 AUDIO
    TITLE "3:cjc004_6436"
    INDEX 01 00:34:10
  TRACK 26 AUDIO
    TITLE "0:"
    INDEX 01 00:35:41
  TRACK 27 AUDIO
    TITLE "4:cjc004_6437"
    INDEX 01 00:35:64
  TRACK 28 AUDIO
    TITLE "0:"
    INDEX 01 00:37:16
  TRACK 29 AUDIO
    TITLE "5:cjc004_6438"
    INDEX 01 00:37:42
  TRACK 30 AUDIO
    TITLE "0:"
    INDEX 01 00:43:05
  TRACK 31 AUDIO
    TITLE "3:cjc004_6439"
    INDEX 01 00:43:62
  TRACK 32 AUDIO
    TITLE "0:"
    INDEX 01 00:45:04
  TRACK 33 AUDIO
    TITLE "4:cjc004_6440"
    INDEX 01 00:45:33
  TRACK 34 AUDIO
    TITLE "0:"
    INDEX 01 00:46:43
  TRACK 35 AUDIO
    TITLE "5:cjc004_6441"
    INDEX 01 00:46:70
  TRACK 36 AUDIO
    TITLE "0:"
    INDEX 01 00:52:41
  TRACK 37 AUDIO
    TITLE "3:cjc004_6442"
    INDEX 01 00:53:25
  TRACK 38 AUDIO
    TITLE "0:"
    INDEX 01 00:54:40
  TRACK 39 AUDIO
    TITLE "4:cjc004_6443"
    INDEX 01 00:54:66
  TRACK 40 AUDIO
    TITLE "0:"
    INDEX 01 00:55:73
  TRACK 41 AUDIO
    TITLE "5:cjc004_6444"
    INDEX 01 00:56:22
  TRACK 42 AUDIO
    TITLE "0:"
    INDEX 01 01:00:31
  TRACK 43 AUDIO
    TITLE "3:cjc004_6445"
    INDEX 01 01:01:15
  TRACK 44 AUDIO
    TITLE "0:"
    INDEX 01 01:02:46
  TRACK 45 AUDIO
    TITLE "4:cjc004_6446"
    INDEX 01 01:02:73
  TRACK 46 AUDIO
    TITLE "0:"
    INDEX 01 01:03:71
  TRACK 47 AUDIO
    TITLE "5:cjc004_6447"
    INDEX 01 01:04:21
  TRACK 48 AUDIO
    TITLE "0:"
    INDEX 01 01:09:71
  TRACK 49 AUDIO
    TITLE "3:cjc004_6448"
    INDEX 01 01:10:53
  TRACK 50 AUDIO
    TITLE "0:"
    INDEX 01 01:12:07
  TRACK 51 AUDIO
    TITLE "4:cjc004_6449"
    INDEX 01 01:12:36
  TRACK 52 AUDIO
    TITLE "0:"
    INDEX 01 01:13:61
  TRACK 53 AUDIO
    TITLE "5:cjc004_6450"
    INDEX 01 01:14:12
  TRACK 54 AUDIO
    TITLE "0:"
    INDEX 01 01:20:40
  TRACK 55 AUDIO
    TITLE "3:cjc004_6451"
    INDEX 01 01:21:21
  TRACK 56 AUDIO
    TITLE "0:"
    INDEX 01 01:22:29
  TRACK 57 AUDIO
    TITLE "4:cjc004_6452"
    INDEX 01 01:22:54
  TRACK 58 AUDIO
    TITLE "0:"
    INDEX 01 01:23:58
  TRACK 59 AUDIO
    TITLE "5:cjc004_6453"
    INDEX 01 01:24:12
  TRACK 60 AUDIO
    TITLE "0:"
    INDEX 01 01:28:41
